# xmcd
#
# Track frame offsets:
#	150
#	9485
#	20892
#	36737
#	48072
#	59355
#	70680
#	80270
#	89320
#	100830
#	118637
#	130365
#
# Disc length: 1808 seconds
#
# Revision: 1
# Processed by: cddbd v1.5.1PL0 Copyright (c) Steve Scherf et al.
# Submitted via: audiograbber 1.83.01
#
DISCID=9c070e0c
DTITLE=Ralph Stanley - Reunion - Featuring George Shuffler and James King
DYEAR=1987
DGENRE=Bluegrass
TTITLE0=Say You'll Take Me Back
TTITLE1=Too Late To Cry
TTITLE2=Little Glass Of Wine
TTITLE3=A Life Of Sorrow
TTITLE4=I Love No One But You
TTITLE5=Sweetest Love
TTITLE6=I'll Take The Blame
TTITLE7=The Old Home
TTITLE8=Let Me Love You One More Time
TTITLE9=Ralph's Medley: I've Got A Mule To Ride (Rocky Island - Little Birdie -
TTITLE9=Shout Little Luly)
TTITLE10=Darkest Hour Is Just Before Dawn
TTITLE11=Sally Ann (Ray's Theme)
EXTD=
EXTT0=
EXTT1=
EXTT2=
EXTT3=
EXTT4=
EXTT5=
EXTT6=
EXTT7=
EXTT8=
EXTT9=
EXTT10=
EXTT11=
PLAYORDER=
